<svg width="539" height="546" viewBox="0 0 539 546" fill="none" xmlns="http://www.w3.org/2000/svg">
<path d="M368.134 407.079C376.639 407.036 381.974 416.25 377.702 423.604L309.797 540.507C307.828 543.896 304.205 545.981 300.285 545.981H168.17C159.756 545.981 154.457 536.918 158.584 529.586L223.989 413.369C225.928 409.924 229.567 407.785 233.52 407.765L368.134 407.079ZM300.973 0C304.241 -0.0120255 307.26 1.74895 308.857 4.60059L376.88 126.019C380.229 131.997 375.934 139.377 369.081 139.417L243.771 140.154C236.865 140.195 232.577 147.677 236.03 153.656L303.932 271.22C305.057 273.169 305.62 274.143 305.622 275.215C305.624 276.286 305.064 277.264 303.944 279.22L234.705 400.198C231.624 405.582 230.083 408.273 227.769 408.275C225.454 408.277 223.916 405.588 220.842 400.21L74.2441 143.781C72.201 140.207 71.1796 138.42 71.7246 136.732C71.772 136.586 71.8296 136.445 71.8975 136.31C72.1078 135.89 72.4038 135.519 72.6426 135.115L107.79 75.6572C109.451 72.8483 109.461 69.3605 107.816 66.542L77.3555 14.3291C73.8627 8.34205 78.1644 0.819764 85.0957 0.793945L300.973 0ZM144.929 273.731C147.247 273.732 148.689 276.249 147.517 278.249L82.2324 389.579C82.124 389.764 81.9998 389.93 81.8652 390.08L79.9814 393.291C76.1168 399.874 66.5981 399.874 62.7334 393.291L1.3916 288.794C-2.52176 282.128 2.28547 273.731 10.0156 273.731H144.929ZM498.166 206.533C501.446 206.558 504.452 208.366 506.013 211.25L537.374 269.207C537.653 269.639 537.894 270.095 538.097 270.567C539.609 273.701 539.114 277.128 537.326 279.66C536.817 280.381 536.271 281.08 535.851 281.856L505.849 337.305C504.288 340.189 501.281 341.997 498.001 342.021L440.427 342.458C433.579 342.51 429.184 335.198 432.443 329.175L459.655 278.883C461.262 275.914 461.262 272.334 459.655 269.365L432.607 219.379C429.349 213.356 433.743 206.045 440.591 206.097L498.166 206.533ZM23.5488 84.7178C27.3653 77.9957 37.04 77.9603 40.9053 84.6543L69.54 134.251C70.6986 136.258 69.2412 138.765 66.9238 138.751L26.873 138.506C26.6834 138.505 26.4984 138.485 26.3203 138.451L10.2119 138.335C2.57822 138.28 -2.18115 130.037 1.58789 123.398L23.5488 84.7178Z" fill="url(#paint0_linear_2_16)"/>
<defs>
<linearGradient id="paint0_linear_2_16" x1="408.607" y1="67.8957" x2="-0.000150425" y2="376.5" gradientUnits="userSpaceOnUse">
<stop offset="0.139423" stop-color="#F4543E"/>
<stop offset="0.848694" stop-color="#FB8245"/>
</linearGradient>
</defs>
</svg>
