<svg width="539" height="546" viewBox="0 0 539 546" fill="none" xmlns="http://www.w3.org/2000/svg">
<path d="M368.132 407.079C376.638 407.036 381.973 416.25 377.701 423.605L309.795 540.507C307.827 543.896 304.203 545.982 300.284 545.982H168.169C159.756 545.982 154.456 536.92 158.583 529.587L223.988 413.369C225.927 409.924 229.565 407.785 233.518 407.765L368.132 407.079ZM300.971 6.10352e-05C304.24 -0.0119642 307.258 1.74913 308.856 4.60065L376.879 126.019C380.228 131.997 375.933 139.376 369.081 139.417L243.769 140.155C236.864 140.196 232.575 147.677 236.029 153.656L303.931 271.22C305.057 273.168 305.62 274.143 305.622 275.215C305.623 276.286 305.063 277.264 303.944 279.22L234.705 400.198C231.624 405.581 230.082 408.273 227.768 408.275C225.454 408.277 223.916 405.588 220.841 400.21L74.2437 143.781C72.2004 140.207 71.1789 138.42 71.7241 136.732C71.7716 136.586 71.8291 136.445 71.897 136.31C72.1073 135.89 72.4024 135.519 72.6411 135.115L107.789 75.6573C109.449 72.8483 109.459 69.3605 107.815 66.5421L77.354 14.3292C73.8614 8.34202 78.1638 0.819507 85.0952 0.794006L300.971 6.10352e-05ZM144.927 273.732C147.246 273.732 148.688 276.249 147.515 278.249L82.231 389.579C82.1226 389.764 81.9984 389.93 81.8638 390.08L79.98 393.291C76.1152 399.874 66.5965 399.874 62.7319 393.291L1.39014 288.794C-2.52312 282.128 2.28417 273.732 10.0142 273.732H144.927ZM498.165 206.533C501.444 206.558 504.45 208.366 506.011 211.25L537.373 269.207C537.651 269.639 537.892 270.095 538.095 270.567C539.607 273.701 539.113 277.127 537.326 279.659C536.817 280.38 536.269 281.08 535.849 281.857L505.847 337.305C504.286 340.189 501.279 341.997 498 342.022L440.425 342.458C433.577 342.51 429.183 335.198 432.442 329.175L459.654 278.883C461.26 275.914 461.26 272.334 459.654 269.365L432.606 219.379C429.347 213.356 433.742 206.045 440.589 206.097L498.165 206.533ZM23.5483 84.7178C27.365 77.9957 37.0397 77.9609 40.9048 84.6553L69.5386 134.251C70.6974 136.258 69.2399 138.765 66.9224 138.751L26.8726 138.506C26.6829 138.505 26.4979 138.486 26.3198 138.452L10.2104 138.336C2.57701 138.281 -2.18143 130.038 1.5874 123.399L23.5483 84.7178Z" fill="url(#paint0_linear_2_16)"/>
<defs>
<linearGradient id="paint0_linear_2_16" x1="408.606" y1="67.8957" x2="-0.000638707" y2="376.5" gradientUnits="userSpaceOnUse">
<stop offset="0.139423" stop-color="#F4543E"/>
<stop offset="0.848694" stop-color="#FB8245"/>
</linearGradient>
</defs>
</svg>
