<svg width="13" height="13" viewBox="0 0 13 13" fill="none" xmlns="http://www.w3.org/2000/svg">
<path d="M5.93848 2H11.2832C11.7225 2 12.0475 2.37753 11.9941 2.78809L11.4609 6.8877C11.4162 7.23208 11.1169 7.49981 10.751 7.5H6.47168C6.10561 7.5 5.80552 7.2322 5.76074 6.8877L5.22754 2.78809C5.1742 2.37753 5.4992 2 5.93848 2Z" stroke="#A78DAD"/>
<path d="M11.6512 9.49969H5.41538C4.55793 9.49969 3.81615 8.9108 3.63284 8.08455L2.27335 1.95682C2.12136 1.27177 1.57987 0.736163 0.885811 0.584358L0.500122 0.5" stroke="#A78DAD" stroke-linecap="round"/>
<path d="M5.41895 10.9712C5.70238 10.9712 5.93262 11.2014 5.93262 11.4858C5.93248 11.7701 5.70229 11.9995 5.41895 11.9995C5.13563 11.9995 4.90541 11.7701 4.90527 11.4858C4.90527 11.2015 5.13555 10.9712 5.41895 10.9712Z" stroke="#A78DAD"/>
<path d="M10.3701 10.9712C10.6535 10.9712 10.8838 11.2014 10.8838 11.4858C10.8837 11.7701 10.6535 11.9995 10.3701 11.9995C10.0868 11.9995 9.85658 11.7701 9.85645 11.4858C9.85645 11.2015 10.0867 10.9712 10.3701 10.9712Z" stroke="#A78DAD"/>
</svg>
