<svg width="15" height="15" viewBox="0 0 15 15" fill="none" xmlns="http://www.w3.org/2000/svg">
<g clip-path="url(#clip0_650_28)">
<path d="M5.89178 2.58325H11.6818C12.1822 2.58325 12.5543 3.01351 12.4933 3.48364L11.9162 7.92505C11.8649 8.31939 11.5218 8.62427 11.1047 8.62427H6.46893C6.05182 8.62427 5.70867 8.31939 5.65741 7.92505L5.08026 3.48364C5.01934 3.01351 5.39145 2.58325 5.89178 2.58325Z" stroke="#44174E"/>
<path d="M12.0806 10.7491H5.32495C4.39603 10.7491 3.59242 10.1111 3.39383 9.21608L1.92102 2.57812C1.75637 1.83603 1.16975 1.25583 0.417836 1.09138L0 1" stroke="#44174E" stroke-linecap="round"/>
<path d="M5.32928 12.3025C5.65916 12.3027 5.92682 12.5704 5.92694 12.9011C5.92694 13.232 5.65924 13.4995 5.32928 13.4998C4.99915 13.4998 4.73065 13.2321 4.73065 12.9011C4.73078 12.5702 4.99923 12.3025 5.32928 12.3025Z" stroke="#44174E"/>
<path d="M10.6931 12.3025C11.023 12.3027 11.2906 12.5704 11.2908 12.9011C11.2908 13.232 11.0231 13.4995 10.6931 13.4998C10.363 13.4998 10.0945 13.2321 10.0945 12.9011C10.0946 12.5702 10.3631 12.3025 10.6931 12.3025Z" stroke="#44174E"/>
</g>
<defs>
<clipPath id="clip0_650_28">
<rect width="15" height="15" fill="white"/>
</clipPath>
</defs>
</svg>
