<svg width="25" height="25" viewBox="0 0 25 25" fill="none" xmlns="http://www.w3.org/2000/svg">
<path d="M22.5 12.5C22.5 8.08172 18.0228 4.5 12.5 4.5C6.97715 4.5 2.5 8.08172 2.5 12.5" stroke="#7F7381" stroke-width="3" stroke-linecap="round"/>
<path d="M12.5 8.5C13.1401 8.50003 13.3377 9.46504 13.2077 10.0918C13.1804 10.2236 13.166 10.3601 13.166 10.5C13.1661 11.6044 14.0617 12.4999 15.166 12.5C16.25 12.5 18.1777 12.273 18.3871 13.3366C18.4612 13.713 18.5 14.102 18.5 14.5C18.4998 17.8134 15.8134 20.4998 12.5 20.5C9.18649 20.5 6.50016 17.8135 6.5 14.5C6.5 11.1864 9.18639 8.5 12.5 8.5Z" fill="#7F7381"/>
</svg>
